<?xml version="1.0" encoding="utf-8"?>
<!-- Generator: Adobe Illustrator 19.0.0, SVG Export Plug-In . SVG Version: 6.00 Build 0)  -->
<svg version="1.1" id="Layer_1" xmlns="http://www.w3.org/2000/svg" xmlns:xlink="http://www.w3.org/1999/xlink" x="0px" y="0px"
	 viewBox="131 -131 512 512" style="enable-background:new 131 -131 512 512;" xml:space="preserve">
<g id="XMLID_2_">
	<path id="XMLID_9_" d="M290.2,266.5c0-9.3-3.7-17.7-10.2-25.1c-6.5-6.5-14.9-10.2-25.1-10.2c-9.3,0-17.7,3.7-25.1,10.2
		c-7.4,6.5-10.2,14.9-10.2,25.1s3.7,17.7,10.2,25.1c6.5,6.5,14.9,10.2,25.1,10.2c9.3,0,17.7-3.7,25.1-10.2
		C286.5,284.2,290.2,275.8,290.2,266.5z M184.1,125h106.1V54.3h-43.8c-2.8,0-4.7,0.9-6.5,2.8l-54,54c-0.9,1.9-1.9,4.7-2.8,6.5v7.4
		H184.1z M536.9,266.5c0-9.3-3.7-17.7-10.2-25.1s-14.9-10.2-25.1-10.2c-9.3,0-17.7,3.7-25.1,10.2s-10.2,14.9-10.2,25.1
		s3.7,17.7,10.2,25.1c6.5,6.5,14.9,10.2,25.1,10.2c9.3,0,17.7-3.7,25.1-10.2C534.1,284.2,536.9,275.8,536.9,266.5z M572.3,81.2V28.1
		c0-2.8-0.9-4.7-2.8-6.5c-1.9-1.9-3.7-2.8-6.5-2.8h-61.4v-61.4c0-2.8-0.9-4.7-2.8-6.5c-1.9-1.9-3.7-2.8-6.5-2.8h-53.1
		c-2.8,0-4.7,0.9-6.5,2.8c-1.9,1.9-2.8,3.7-2.8,6.5v61.4h-61.4c-2.8,0-4.7,0.9-6.5,2.8c-1.9,1.9-2.8,3.7-2.8,6.5v53.1
		c0,2.8,0.9,4.7,2.8,6.5c1.9,1.9,3.7,2.8,6.5,2.8h61.4V152c0,2.8,0.9,4.7,2.8,6.5s3.7,2.8,6.5,2.8h53.1c2.8,0,4.7-0.9,6.5-2.8
		c1.9-1.9,2.8-3.7,2.8-6.5V90.6H564c2.8,0,4.7-0.9,6.5-2.8C571.3,85.9,572.3,83.1,572.3,81.2z M643-69.6v317.4
		c0,4.7-1.9,9.3-5.6,12.1c-3.7,2.8-7.4,5.6-12.1,5.6h-53.1c0,19.5-6.5,36.3-20.5,50.3s-30.7,20.5-50.3,20.5
		c-19.5,0-36.3-6.5-49.3-20.5c-14-14-20.5-30.7-20.5-50.3h-106c0,19.5-6.5,36.3-20.5,50.3s-30.7,20.5-50.3,20.5s-36.3-6.5-50.3-20.5
		S184,285.1,184,265.5h-35.3c-4.7,0-9.3-1.9-12.1-5.6c-3.7-3.7-5.6-7.4-5.6-12.1s1.9-9.3,5.6-12.1c3.7-3.7,7.4-5.6,12.1-5.6V116.6
		c0-4.7,0.9-10.2,3.7-15.8c2.8-5.6,5.6-10.2,8.4-14l54.9-54.9c3.7-3.7,8.4-6.5,14-8.4c5.6-2.8,11.2-3.7,15.8-3.7h43.8v-88.4
		c0-4.7,1.9-9.3,5.6-12.1c3.7-3.7,7.4-5.6,12.1-5.6h317.4c4.7,0,9.3,1.9,12.1,5.6C641.1-77.9,643-74.2,643-69.6z"/>
</g>
</svg>
