<svg xmlns="http://www.w3.org/2000/svg" xmlns:xlink="http://www.w3.org/1999/xlink" version="1.1" id="logo" x="0px" y="0px" width="100px" height="100px" viewBox="0 0 100 100" enable-background="new 0 0 235 101" xml:space="preserve">
<g>
	<path fill="#C52127" d="M50.768,1.146C15.287,2.098,0.396,8.434,0.396,50.961c0,42.525,14.891,48.863,50.371,49.813   c36.211,0,47.286-8.908,49.788-45.199c0.103-1.492,0.059-8.482-0.078-10.309C97.829,9.879,86.616,1.146,50.768,1.146z"/>
    <linearGradient id="SVGID_1_" gradientUnits="userSpaceOnUse" x1="74.8818" y1="51.0527" x2="3.866" y2="51.0527">
		<stop offset="0" style="stop-color:#F6E0D7"/>
        <stop offset="1" style="stop-color:#F9ECE8"/>
	</linearGradient>
    <path fill="url(#SVGID_1_)" d="M72.44,43.609c-0.087-7.313-6.034-13.215-13.367-13.215c-2.608,0-5.033,0.758-7.091,2.049   c-2.455-2.602-5.926-4.232-9.784-4.232c-7.438,0-13.467,6.029-13.467,13.467c0,0.652,0.062,1.287,0.151,1.916   c-7.305,1.131-12.901,7.43-12.901,15.051c0,8.422,6.827,15.25,15.25,15.25h38.75c8.422,0,15.25-6.828,15.25-15.25   C85.231,51.061,79.69,44.789,72.44,43.609z M52.874,60.316v0.029h-0.038h-0.374h-1.926v-4.322   c-4.585-0.166-8.471,0.523-11.273,6.309c0.604-8.908,4.529-11.691,11.273-11.83V45.92h1.926h0.374h0.038v0.029l9.096,7.184   L52.874,60.316z"/>
    <path fill="blue" d="M235.65,58.088c0.03,0,0.057-0.016,0.085-0.018h-0.169C235.597,58.072,235.62,58.088,235.65,58.088z"/>
</g>
</svg>